<mxfile host="app.diagrams.net" modified="2020-10-18T10:55:07.840Z" agent="5.0 (Macintosh; Intel Mac OS X 10_14_6) AppleWebKit/537.36 (KHTML, like Gecko) Chrome/86.0.4240.80 Safari/537.36" etag="ScgJ2kgugIcwo4CMrjHc" version="13.8.0" type="github" pages="3">
  <diagram id="C5RBs43oDa-KdzZeNtuy" name="Q1">
    <mxGraphModel dx="946" dy="646" grid="1" gridSize="10" guides="1" tooltips="1" connect="1" arrows="1" fold="1" page="1" pageScale="1" pageWidth="827" pageHeight="1169" math="0" shadow="0">
      <root>
        <mxCell id="WIyWlLk6GJQsqaUBKTNV-0" />
        <mxCell id="WIyWlLk6GJQsqaUBKTNV-1" parent="WIyWlLk6GJQsqaUBKTNV-0" />
        <mxCell id="betWT-Afut7w752jWSQ--40" value="" style="edgeStyle=entityRelationEdgeStyle;fontSize=12;html=1;endArrow=ERmandOne;startArrow=ERoneToMany;rounded=0;entryX=0;entryY=0.5;entryDx=0;entryDy=0;strokeColor=#CC0000;strokeWidth=2;dashed=1;" edge="1" parent="WIyWlLk6GJQsqaUBKTNV-1" target="betWT-Afut7w752jWSQ--30">
          <mxGeometry width="100" height="100" relative="1" as="geometry">
            <mxPoint x="350" y="219.66000000000003" as="sourcePoint" />
            <mxPoint x="460" y="219.66000000000003" as="targetPoint" />
          </mxGeometry>
        </mxCell>
        <mxCell id="betWT-Afut7w752jWSQ--42" value="does" style="text;html=1;strokeColor=none;fillColor=none;align=center;verticalAlign=middle;whiteSpace=wrap;rounded=0;fontColor=#CC0000;" vertex="1" parent="WIyWlLk6GJQsqaUBKTNV-1">
          <mxGeometry x="400" y="200" width="40" height="20" as="geometry" />
        </mxCell>
        <mxCell id="betWT-Afut7w752jWSQ--1" value="EMPLOYEE" style="shape=table;startSize=30;container=1;collapsible=1;childLayout=tableLayout;fixedRows=1;rowLines=0;fontStyle=1;align=center;resizeLast=1;" vertex="1" parent="WIyWlLk6GJQsqaUBKTNV-1">
          <mxGeometry x="170" y="170" width="180" height="130" as="geometry" />
        </mxCell>
        <mxCell id="betWT-Afut7w752jWSQ--2" value="" style="shape=partialRectangle;collapsible=0;dropTarget=0;pointerEvents=0;fillColor=none;top=0;left=0;bottom=1;right=0;points=[[0,0.5],[1,0.5]];portConstraint=eastwest;" vertex="1" parent="betWT-Afut7w752jWSQ--1">
          <mxGeometry y="30" width="180" height="30" as="geometry" />
        </mxCell>
        <mxCell id="betWT-Afut7w752jWSQ--3" value="PK" style="shape=partialRectangle;connectable=0;fillColor=none;top=0;left=0;bottom=0;right=0;fontStyle=1;overflow=hidden;" vertex="1" parent="betWT-Afut7w752jWSQ--2">
          <mxGeometry width="30" height="30" as="geometry" />
        </mxCell>
        <mxCell id="betWT-Afut7w752jWSQ--4" value="EMP_CODE" style="shape=partialRectangle;connectable=0;fillColor=none;top=0;left=0;bottom=0;right=0;align=left;spacingLeft=6;fontStyle=5;overflow=hidden;horizontal=1;" vertex="1" parent="betWT-Afut7w752jWSQ--2">
          <mxGeometry x="30" width="150" height="30" as="geometry" />
        </mxCell>
        <mxCell id="betWT-Afut7w752jWSQ--5" value="" style="shape=partialRectangle;collapsible=0;dropTarget=0;pointerEvents=0;fillColor=none;top=0;left=0;bottom=0;right=0;points=[[0,0.5],[1,0.5]];portConstraint=eastwest;" vertex="1" parent="betWT-Afut7w752jWSQ--1">
          <mxGeometry y="60" width="180" height="30" as="geometry" />
        </mxCell>
        <mxCell id="betWT-Afut7w752jWSQ--6" value="FK1" style="shape=partialRectangle;connectable=0;fillColor=none;top=0;left=0;bottom=0;right=0;editable=1;overflow=hidden;" vertex="1" parent="betWT-Afut7w752jWSQ--5">
          <mxGeometry width="30" height="30" as="geometry" />
        </mxCell>
        <mxCell id="betWT-Afut7w752jWSQ--7" value="JOB_CODE" style="shape=partialRectangle;connectable=0;fillColor=none;top=0;left=0;bottom=0;right=0;align=left;spacingLeft=6;overflow=hidden;verticalAlign=middle;" vertex="1" parent="betWT-Afut7w752jWSQ--5">
          <mxGeometry x="30" width="150" height="30" as="geometry" />
        </mxCell>
        <mxCell id="betWT-Afut7w752jWSQ--44" value="" style="shape=partialRectangle;collapsible=0;dropTarget=0;pointerEvents=0;fillColor=none;top=0;left=0;bottom=0;right=0;points=[[0,0.5],[1,0.5]];portConstraint=eastwest;" vertex="1" parent="betWT-Afut7w752jWSQ--1">
          <mxGeometry y="90" width="180" height="30" as="geometry" />
        </mxCell>
        <mxCell id="betWT-Afut7w752jWSQ--45" value="" style="shape=partialRectangle;connectable=0;fillColor=none;top=0;left=0;bottom=0;right=0;editable=1;overflow=hidden;" vertex="1" parent="betWT-Afut7w752jWSQ--44">
          <mxGeometry width="30" height="30" as="geometry" />
        </mxCell>
        <mxCell id="betWT-Afut7w752jWSQ--46" value="EMP_LNAME" style="shape=partialRectangle;connectable=0;fillColor=none;top=0;left=0;bottom=0;right=0;align=left;spacingLeft=6;overflow=hidden;verticalAlign=middle;" vertex="1" parent="betWT-Afut7w752jWSQ--44">
          <mxGeometry x="30" width="150" height="30" as="geometry" />
        </mxCell>
        <mxCell id="betWT-Afut7w752jWSQ--30" value="JOB" style="shape=table;startSize=30;container=1;collapsible=1;childLayout=tableLayout;fixedRows=1;rowLines=0;fontStyle=1;align=center;resizeLast=1;" vertex="1" parent="WIyWlLk6GJQsqaUBKTNV-1">
          <mxGeometry x="490.0000000000001" y="170" width="180" height="100" as="geometry" />
        </mxCell>
        <mxCell id="betWT-Afut7w752jWSQ--31" value="" style="shape=partialRectangle;collapsible=0;dropTarget=0;pointerEvents=0;fillColor=none;top=0;left=0;bottom=1;right=0;points=[[0,0.5],[1,0.5]];portConstraint=eastwest;" vertex="1" parent="betWT-Afut7w752jWSQ--30">
          <mxGeometry y="30" width="180" height="30" as="geometry" />
        </mxCell>
        <mxCell id="betWT-Afut7w752jWSQ--32" value="PK" style="shape=partialRectangle;connectable=0;fillColor=none;top=0;left=0;bottom=0;right=0;fontStyle=1;overflow=hidden;" vertex="1" parent="betWT-Afut7w752jWSQ--31">
          <mxGeometry width="30" height="30" as="geometry" />
        </mxCell>
        <mxCell id="betWT-Afut7w752jWSQ--33" value="JOB_CODE" style="shape=partialRectangle;connectable=0;fillColor=none;top=0;left=0;bottom=0;right=0;align=left;spacingLeft=6;fontStyle=5;overflow=hidden;horizontal=1;" vertex="1" parent="betWT-Afut7w752jWSQ--31">
          <mxGeometry x="30" width="150" height="30" as="geometry" />
        </mxCell>
        <mxCell id="betWT-Afut7w752jWSQ--34" value="" style="shape=partialRectangle;collapsible=0;dropTarget=0;pointerEvents=0;fillColor=none;top=0;left=0;bottom=0;right=0;points=[[0,0.5],[1,0.5]];portConstraint=eastwest;" vertex="1" parent="betWT-Afut7w752jWSQ--30">
          <mxGeometry y="60" width="180" height="30" as="geometry" />
        </mxCell>
        <mxCell id="betWT-Afut7w752jWSQ--35" value="" style="shape=partialRectangle;connectable=0;fillColor=none;top=0;left=0;bottom=0;right=0;editable=1;overflow=hidden;" vertex="1" parent="betWT-Afut7w752jWSQ--34">
          <mxGeometry width="30" height="30" as="geometry" />
        </mxCell>
        <mxCell id="betWT-Afut7w752jWSQ--36" value="JOB_DESCRIPTION" style="shape=partialRectangle;connectable=0;fillColor=none;top=0;left=0;bottom=0;right=0;align=left;spacingLeft=6;overflow=hidden;verticalAlign=middle;" vertex="1" parent="betWT-Afut7w752jWSQ--34">
          <mxGeometry x="30" width="150" height="30" as="geometry" />
        </mxCell>
        <mxCell id="betWT-Afut7w752jWSQ--43" value="d) ERD" style="text;html=1;strokeColor=none;fillColor=none;align=center;verticalAlign=middle;whiteSpace=wrap;rounded=0;fontColor=#330000;fontStyle=1;fontSize=20;" vertex="1" parent="WIyWlLk6GJQsqaUBKTNV-1">
          <mxGeometry x="370" y="110" width="87" height="20" as="geometry" />
        </mxCell>
        <mxCell id="betWT-Afut7w752jWSQ--47" value="d) Relational Diagram" style="text;html=1;strokeColor=none;fillColor=none;align=center;verticalAlign=middle;whiteSpace=wrap;rounded=0;fontColor=#330000;fontStyle=1;fontSize=20;" vertex="1" parent="WIyWlLk6GJQsqaUBKTNV-1">
          <mxGeometry x="286" y="343" width="280" height="20" as="geometry" />
        </mxCell>
        <mxCell id="betWT-Afut7w752jWSQ--57" value="" style="shape=partialRectangle;connectable=0;fillColor=none;top=0;left=0;bottom=0;right=0;fontStyle=1;overflow=hidden;" vertex="1" parent="WIyWlLk6GJQsqaUBKTNV-1">
          <mxGeometry x="350" y="370" width="30" height="30" as="geometry" />
        </mxCell>
        <mxCell id="betWT-Afut7w752jWSQ--64" value="EMPLOYEE" style="shape=table;startSize=30;container=1;collapsible=1;childLayout=tableLayout;fixedRows=1;rowLines=0;fontStyle=1;align=center;resizeLast=1;" vertex="1" parent="WIyWlLk6GJQsqaUBKTNV-1">
          <mxGeometry x="186" y="410" width="180" height="130" as="geometry" />
        </mxCell>
        <mxCell id="betWT-Afut7w752jWSQ--65" value="" style="shape=partialRectangle;collapsible=0;dropTarget=0;pointerEvents=0;fillColor=none;top=0;left=0;bottom=1;right=0;points=[[0,0.5],[1,0.5]];portConstraint=eastwest;strokeColor=none;" vertex="1" parent="betWT-Afut7w752jWSQ--64">
          <mxGeometry y="30" width="180" height="30" as="geometry" />
        </mxCell>
        <mxCell id="betWT-Afut7w752jWSQ--66" value="" style="shape=partialRectangle;connectable=0;fillColor=none;top=0;left=0;bottom=0;right=0;fontStyle=1;overflow=hidden;strokeColor=none;" vertex="1" parent="betWT-Afut7w752jWSQ--65">
          <mxGeometry width="30" height="30" as="geometry" />
        </mxCell>
        <mxCell id="betWT-Afut7w752jWSQ--67" value="EMP_CODE" style="shape=partialRectangle;connectable=0;fillColor=none;top=0;left=0;bottom=0;right=0;align=left;spacingLeft=6;fontStyle=5;overflow=hidden;horizontal=1;strokeColor=none;" vertex="1" parent="betWT-Afut7w752jWSQ--65">
          <mxGeometry x="30" width="150" height="30" as="geometry" />
        </mxCell>
        <mxCell id="betWT-Afut7w752jWSQ--71" value="" style="shape=partialRectangle;collapsible=0;dropTarget=0;pointerEvents=0;fillColor=none;top=0;left=0;bottom=0;right=0;points=[[0,0.5],[1,0.5]];portConstraint=eastwest;" vertex="1" parent="betWT-Afut7w752jWSQ--64">
          <mxGeometry y="60" width="180" height="30" as="geometry" />
        </mxCell>
        <mxCell id="betWT-Afut7w752jWSQ--72" value="" style="shape=partialRectangle;connectable=0;fillColor=none;top=0;left=0;bottom=0;right=0;editable=1;overflow=hidden;strokeColor=none;" vertex="1" parent="betWT-Afut7w752jWSQ--71">
          <mxGeometry width="30" height="30" as="geometry" />
        </mxCell>
        <mxCell id="betWT-Afut7w752jWSQ--73" value="EMP_LNAME" style="shape=partialRectangle;connectable=0;fillColor=none;top=0;left=0;bottom=0;right=0;align=left;spacingLeft=6;overflow=hidden;verticalAlign=middle;" vertex="1" parent="betWT-Afut7w752jWSQ--71">
          <mxGeometry x="30" width="150" height="30" as="geometry" />
        </mxCell>
        <mxCell id="betWT-Afut7w752jWSQ--68" value="" style="shape=partialRectangle;collapsible=0;dropTarget=0;pointerEvents=0;fillColor=none;top=0;left=0;bottom=0;right=0;points=[[0,0.5],[1,0.5]];portConstraint=eastwest;" vertex="1" parent="betWT-Afut7w752jWSQ--64">
          <mxGeometry y="90" width="180" height="30" as="geometry" />
        </mxCell>
        <mxCell id="betWT-Afut7w752jWSQ--69" value="" style="shape=partialRectangle;connectable=0;fillColor=none;top=0;left=0;bottom=0;right=0;editable=1;overflow=hidden;strokeColor=none;" vertex="1" parent="betWT-Afut7w752jWSQ--68">
          <mxGeometry width="30" height="30" as="geometry" />
        </mxCell>
        <mxCell id="betWT-Afut7w752jWSQ--70" value="JOB_CODE" style="shape=partialRectangle;connectable=0;fillColor=none;top=0;left=0;bottom=0;right=0;align=left;spacingLeft=6;overflow=hidden;verticalAlign=middle;strokeColor=none;" vertex="1" parent="betWT-Afut7w752jWSQ--68">
          <mxGeometry x="30" width="150" height="30" as="geometry" />
        </mxCell>
        <mxCell id="betWT-Afut7w752jWSQ--74" value="" style="aspect=fixed;html=1;points=[];align=center;image;fontSize=12;image=img/lib/mscae/Key.svg;fillColor=none;" vertex="1" parent="WIyWlLk6GJQsqaUBKTNV-1">
          <mxGeometry x="194" y="445" width="12.4" height="20" as="geometry" />
        </mxCell>
        <mxCell id="betWT-Afut7w752jWSQ--75" value="JOB" style="shape=table;startSize=30;container=1;collapsible=1;childLayout=tableLayout;fixedRows=1;rowLines=0;fontStyle=1;align=center;resizeLast=1;" vertex="1" parent="WIyWlLk6GJQsqaUBKTNV-1">
          <mxGeometry x="496" y="410" width="180" height="100" as="geometry" />
        </mxCell>
        <mxCell id="betWT-Afut7w752jWSQ--76" value="" style="shape=partialRectangle;collapsible=0;dropTarget=0;pointerEvents=0;fillColor=none;top=0;left=0;bottom=1;right=0;points=[[0,0.5],[1,0.5]];portConstraint=eastwest;strokeColor=none;" vertex="1" parent="betWT-Afut7w752jWSQ--75">
          <mxGeometry y="30" width="180" height="30" as="geometry" />
        </mxCell>
        <mxCell id="betWT-Afut7w752jWSQ--77" value="" style="shape=partialRectangle;connectable=0;fillColor=none;top=0;left=0;bottom=0;right=0;fontStyle=1;overflow=hidden;strokeColor=none;" vertex="1" parent="betWT-Afut7w752jWSQ--76">
          <mxGeometry width="30" height="30" as="geometry" />
        </mxCell>
        <mxCell id="betWT-Afut7w752jWSQ--78" value="JOB_CODE" style="shape=partialRectangle;connectable=0;fillColor=none;top=0;left=0;bottom=0;right=0;align=left;spacingLeft=6;fontStyle=5;overflow=hidden;horizontal=1;strokeColor=none;" vertex="1" parent="betWT-Afut7w752jWSQ--76">
          <mxGeometry x="30" width="150" height="30" as="geometry" />
        </mxCell>
        <mxCell id="betWT-Afut7w752jWSQ--79" value="" style="shape=partialRectangle;collapsible=0;dropTarget=0;pointerEvents=0;fillColor=none;top=0;left=0;bottom=0;right=0;points=[[0,0.5],[1,0.5]];portConstraint=eastwest;" vertex="1" parent="betWT-Afut7w752jWSQ--75">
          <mxGeometry y="60" width="180" height="30" as="geometry" />
        </mxCell>
        <mxCell id="betWT-Afut7w752jWSQ--80" value="" style="shape=partialRectangle;connectable=0;fillColor=none;top=0;left=0;bottom=0;right=0;editable=1;overflow=hidden;strokeColor=none;" vertex="1" parent="betWT-Afut7w752jWSQ--79">
          <mxGeometry width="30" height="30" as="geometry" />
        </mxCell>
        <mxCell id="betWT-Afut7w752jWSQ--81" value="JOB_DESCRIPTION" style="shape=partialRectangle;connectable=0;fillColor=none;top=0;left=0;bottom=0;right=0;align=left;spacingLeft=6;overflow=hidden;verticalAlign=middle;strokeColor=none;" vertex="1" parent="betWT-Afut7w752jWSQ--79">
          <mxGeometry x="30" width="150" height="30" as="geometry" />
        </mxCell>
        <mxCell id="betWT-Afut7w752jWSQ--85" value="" style="aspect=fixed;html=1;points=[];align=center;image;fontSize=12;image=img/lib/mscae/Key.svg;fillColor=none;" vertex="1" parent="WIyWlLk6GJQsqaUBKTNV-1">
          <mxGeometry x="506" y="445" width="12.4" height="20" as="geometry" />
        </mxCell>
        <mxCell id="betWT-Afut7w752jWSQ--91" value="" style="edgeStyle=entityRelationEdgeStyle;fontSize=12;html=1;endArrow=ERmandOne;startArrow=ERoneToMany;rounded=0;entryX=0;entryY=0.5;entryDx=0;entryDy=0;strokeColor=#CC0000;strokeWidth=2;dashed=1;" edge="1" target="betWT-Afut7w752jWSQ--103" parent="WIyWlLk6GJQsqaUBKTNV-1">
          <mxGeometry width="100" height="100" relative="1" as="geometry">
            <mxPoint x="344" y="769.6600000000001" as="sourcePoint" />
            <mxPoint x="454" y="769.6600000000001" as="targetPoint" />
          </mxGeometry>
        </mxCell>
        <mxCell id="betWT-Afut7w752jWSQ--92" value="does" style="text;html=1;strokeColor=none;fillColor=none;align=center;verticalAlign=middle;whiteSpace=wrap;rounded=0;fontColor=#CC0000;" vertex="1" parent="WIyWlLk6GJQsqaUBKTNV-1">
          <mxGeometry x="394" y="750" width="40" height="20" as="geometry" />
        </mxCell>
        <mxCell id="betWT-Afut7w752jWSQ--110" value="g) ERD" style="text;html=1;strokeColor=none;fillColor=none;align=center;verticalAlign=middle;whiteSpace=wrap;rounded=0;fontColor=#330000;fontStyle=1;fontSize=20;" vertex="1" parent="WIyWlLk6GJQsqaUBKTNV-1">
          <mxGeometry x="364" y="660" width="87" height="20" as="geometry" />
        </mxCell>
        <mxCell id="betWT-Afut7w752jWSQ--93" value="EMPLOYEE" style="shape=table;startSize=30;container=1;collapsible=1;childLayout=tableLayout;fixedRows=1;rowLines=0;fontStyle=1;align=center;resizeLast=1;" vertex="1" parent="WIyWlLk6GJQsqaUBKTNV-1">
          <mxGeometry x="164" y="720" width="180" height="130" as="geometry" />
        </mxCell>
        <mxCell id="betWT-Afut7w752jWSQ--94" value="" style="shape=partialRectangle;collapsible=0;dropTarget=0;pointerEvents=0;fillColor=none;top=0;left=0;bottom=1;right=0;points=[[0,0.5],[1,0.5]];portConstraint=eastwest;" vertex="1" parent="betWT-Afut7w752jWSQ--93">
          <mxGeometry y="30" width="180" height="30" as="geometry" />
        </mxCell>
        <mxCell id="betWT-Afut7w752jWSQ--95" value="PK" style="shape=partialRectangle;connectable=0;fillColor=none;top=0;left=0;bottom=0;right=0;fontStyle=1;overflow=hidden;" vertex="1" parent="betWT-Afut7w752jWSQ--94">
          <mxGeometry width="30" height="30" as="geometry" />
        </mxCell>
        <mxCell id="betWT-Afut7w752jWSQ--96" value="EMP_CODE" style="shape=partialRectangle;connectable=0;fillColor=none;top=0;left=0;bottom=0;right=0;align=left;spacingLeft=6;fontStyle=5;overflow=hidden;horizontal=1;" vertex="1" parent="betWT-Afut7w752jWSQ--94">
          <mxGeometry x="30" width="150" height="30" as="geometry" />
        </mxCell>
        <mxCell id="betWT-Afut7w752jWSQ--97" value="" style="shape=partialRectangle;collapsible=0;dropTarget=0;pointerEvents=0;fillColor=none;top=0;left=0;bottom=0;right=0;points=[[0,0.5],[1,0.5]];portConstraint=eastwest;" vertex="1" parent="betWT-Afut7w752jWSQ--93">
          <mxGeometry y="60" width="180" height="30" as="geometry" />
        </mxCell>
        <mxCell id="betWT-Afut7w752jWSQ--98" value="FK1" style="shape=partialRectangle;connectable=0;fillColor=none;top=0;left=0;bottom=0;right=0;editable=1;overflow=hidden;" vertex="1" parent="betWT-Afut7w752jWSQ--97">
          <mxGeometry width="30" height="30" as="geometry" />
        </mxCell>
        <mxCell id="betWT-Afut7w752jWSQ--99" value="JOB_CODE" style="shape=partialRectangle;connectable=0;fillColor=none;top=0;left=0;bottom=0;right=0;align=left;spacingLeft=6;overflow=hidden;verticalAlign=middle;" vertex="1" parent="betWT-Afut7w752jWSQ--97">
          <mxGeometry x="30" width="150" height="30" as="geometry" />
        </mxCell>
        <mxCell id="betWT-Afut7w752jWSQ--100" value="" style="shape=partialRectangle;collapsible=0;dropTarget=0;pointerEvents=0;fillColor=none;top=0;left=0;bottom=0;right=0;points=[[0,0.5],[1,0.5]];portConstraint=eastwest;" vertex="1" parent="betWT-Afut7w752jWSQ--93">
          <mxGeometry y="90" width="180" height="30" as="geometry" />
        </mxCell>
        <mxCell id="betWT-Afut7w752jWSQ--101" value="" style="shape=partialRectangle;connectable=0;fillColor=none;top=0;left=0;bottom=0;right=0;editable=1;overflow=hidden;" vertex="1" parent="betWT-Afut7w752jWSQ--100">
          <mxGeometry width="30" height="30" as="geometry" />
        </mxCell>
        <mxCell id="betWT-Afut7w752jWSQ--102" value="EMP_LNAME" style="shape=partialRectangle;connectable=0;fillColor=none;top=0;left=0;bottom=0;right=0;align=left;spacingLeft=6;overflow=hidden;verticalAlign=middle;" vertex="1" parent="betWT-Afut7w752jWSQ--100">
          <mxGeometry x="30" width="150" height="30" as="geometry" />
        </mxCell>
        <mxCell id="betWT-Afut7w752jWSQ--103" value="JOB" style="shape=table;startSize=30;container=1;collapsible=1;childLayout=tableLayout;fixedRows=1;rowLines=0;fontStyle=1;align=center;resizeLast=1;" vertex="1" parent="WIyWlLk6GJQsqaUBKTNV-1">
          <mxGeometry x="484.0000000000001" y="720" width="180" height="100" as="geometry" />
        </mxCell>
        <mxCell id="betWT-Afut7w752jWSQ--104" value="" style="shape=partialRectangle;collapsible=0;dropTarget=0;pointerEvents=0;fillColor=none;top=0;left=0;bottom=1;right=0;points=[[0,0.5],[1,0.5]];portConstraint=eastwest;" vertex="1" parent="betWT-Afut7w752jWSQ--103">
          <mxGeometry y="30" width="180" height="30" as="geometry" />
        </mxCell>
        <mxCell id="betWT-Afut7w752jWSQ--105" value="PK" style="shape=partialRectangle;connectable=0;fillColor=none;top=0;left=0;bottom=0;right=0;fontStyle=1;overflow=hidden;" vertex="1" parent="betWT-Afut7w752jWSQ--104">
          <mxGeometry width="30" height="30" as="geometry" />
        </mxCell>
        <mxCell id="betWT-Afut7w752jWSQ--106" value="JOB_CODE" style="shape=partialRectangle;connectable=0;fillColor=none;top=0;left=0;bottom=0;right=0;align=left;spacingLeft=6;fontStyle=5;overflow=hidden;horizontal=1;" vertex="1" parent="betWT-Afut7w752jWSQ--104">
          <mxGeometry x="30" width="150" height="30" as="geometry" />
        </mxCell>
        <mxCell id="betWT-Afut7w752jWSQ--107" value="" style="shape=partialRectangle;collapsible=0;dropTarget=0;pointerEvents=0;fillColor=none;top=0;left=0;bottom=0;right=0;points=[[0,0.5],[1,0.5]];portConstraint=eastwest;" vertex="1" parent="betWT-Afut7w752jWSQ--103">
          <mxGeometry y="60" width="180" height="30" as="geometry" />
        </mxCell>
        <mxCell id="betWT-Afut7w752jWSQ--108" value="" style="shape=partialRectangle;connectable=0;fillColor=none;top=0;left=0;bottom=0;right=0;editable=1;overflow=hidden;" vertex="1" parent="betWT-Afut7w752jWSQ--107">
          <mxGeometry width="30" height="30" as="geometry" />
        </mxCell>
        <mxCell id="betWT-Afut7w752jWSQ--109" value="JOB_DESCRIPTION" style="shape=partialRectangle;connectable=0;fillColor=none;top=0;left=0;bottom=0;right=0;align=left;spacingLeft=6;overflow=hidden;verticalAlign=middle;" vertex="1" parent="betWT-Afut7w752jWSQ--107">
          <mxGeometry x="30" width="150" height="30" as="geometry" />
        </mxCell>
        <mxCell id="betWT-Afut7w752jWSQ--127" value="" style="fontSize=12;html=1;endArrow=ERmandOne;startArrow=ERzeroToMany;strokeWidth=2;rounded=0;entryX=0.5;entryY=1;entryDx=0;entryDy=0;strokeColor=#CC0000;exitX=0.5;exitY=0;exitDx=0;exitDy=0;startFill=1;endFill=0;" edge="1" parent="WIyWlLk6GJQsqaUBKTNV-1" source="betWT-Afut7w752jWSQ--137" target="betWT-Afut7w752jWSQ--93">
          <mxGeometry width="100" height="100" relative="1" as="geometry">
            <mxPoint x="254" y="940" as="sourcePoint" />
            <mxPoint x="470" y="850" as="targetPoint" />
          </mxGeometry>
        </mxCell>
        <mxCell id="betWT-Afut7w752jWSQ--128" value="" style="edgeStyle=entityRelationEdgeStyle;fontSize=12;html=1;endArrow=none;endFill=0;strokeColor=#330000;strokeWidth=2;rounded=0;entryX=0;entryY=0.5;entryDx=0;entryDy=0;exitX=1;exitY=0.5;exitDx=0;exitDy=0;" edge="1" parent="WIyWlLk6GJQsqaUBKTNV-1" source="betWT-Afut7w752jWSQ--68" target="betWT-Afut7w752jWSQ--76">
          <mxGeometry width="100" height="100" relative="1" as="geometry">
            <mxPoint x="366" y="510" as="sourcePoint" />
            <mxPoint x="466" y="410" as="targetPoint" />
          </mxGeometry>
        </mxCell>
        <mxCell id="betWT-Afut7w752jWSQ--132" value="1" style="text;html=1;align=center;verticalAlign=middle;resizable=0;points=[];autosize=1;fontSize=14;fontColor=#330000;" vertex="1" parent="WIyWlLk6GJQsqaUBKTNV-1">
          <mxGeometry x="474" y="433" width="20" height="20" as="geometry" />
        </mxCell>
        <mxCell id="betWT-Afut7w752jWSQ--133" value="∞" style="text;html=1;align=center;verticalAlign=middle;resizable=0;points=[];autosize=1;fontSize=16;fontColor=#330000;" vertex="1" parent="WIyWlLk6GJQsqaUBKTNV-1">
          <mxGeometry x="364" y="495" width="30" height="20" as="geometry" />
        </mxCell>
        <mxCell id="betWT-Afut7w752jWSQ--136" value="participates in" style="text;html=1;align=center;verticalAlign=middle;resizable=0;points=[];autosize=1;fontSize=12;fontColor=#CC0000;" vertex="1" parent="WIyWlLk6GJQsqaUBKTNV-1">
          <mxGeometry x="165" y="893" width="90" height="20" as="geometry" />
        </mxCell>
        <mxCell id="betWT-Afut7w752jWSQ--137" value="BENEFIT" style="shape=table;startSize=30;container=1;collapsible=1;childLayout=tableLayout;fixedRows=1;rowLines=0;fontStyle=1;align=center;resizeLast=1;fillColor=none;fontSize=12;" vertex="1" parent="WIyWlLk6GJQsqaUBKTNV-1">
          <mxGeometry x="164.0000000000001" y="950" width="180" height="127" as="geometry" />
        </mxCell>
        <mxCell id="betWT-Afut7w752jWSQ--144" value="" style="shape=partialRectangle;collapsible=0;dropTarget=0;pointerEvents=0;fillColor=none;top=0;left=0;bottom=1;right=0;points=[[0,0.5],[1,0.5]];portConstraint=eastwest;dashed=1;strokeColor=none;" vertex="1" parent="betWT-Afut7w752jWSQ--137">
          <mxGeometry y="30" width="180" height="37" as="geometry" />
        </mxCell>
        <mxCell id="betWT-Afut7w752jWSQ--145" value="PK, FK1" style="shape=partialRectangle;connectable=0;fillColor=none;top=0;left=0;bottom=0;right=0;fontStyle=1;overflow=hidden;verticalAlign=middle;" vertex="1" parent="betWT-Afut7w752jWSQ--144">
          <mxGeometry width="66" height="37" as="geometry" />
        </mxCell>
        <mxCell id="betWT-Afut7w752jWSQ--146" value="EMP_CODE" style="shape=partialRectangle;connectable=0;fillColor=none;top=0;left=0;bottom=0;right=0;align=left;spacingLeft=6;fontStyle=5;overflow=hidden;horizontal=1;verticalAlign=middle;" vertex="1" parent="betWT-Afut7w752jWSQ--144">
          <mxGeometry x="66" width="114" height="37" as="geometry" />
        </mxCell>
        <mxCell id="betWT-Afut7w752jWSQ--138" value="" style="shape=partialRectangle;collapsible=0;dropTarget=0;pointerEvents=0;fillColor=none;top=0;left=0;bottom=1;right=0;points=[[0,0.5],[1,0.5]];portConstraint=eastwest;" vertex="1" parent="betWT-Afut7w752jWSQ--137">
          <mxGeometry y="67" width="180" height="20" as="geometry" />
        </mxCell>
        <mxCell id="betWT-Afut7w752jWSQ--139" value="PK, FK2" style="shape=partialRectangle;connectable=0;fillColor=none;top=0;left=0;bottom=0;right=0;fontStyle=1;overflow=hidden;" vertex="1" parent="betWT-Afut7w752jWSQ--138">
          <mxGeometry width="66" height="20" as="geometry" />
        </mxCell>
        <mxCell id="betWT-Afut7w752jWSQ--140" value="PLAN_CODE" style="shape=partialRectangle;connectable=0;fillColor=none;top=0;left=0;bottom=0;right=0;align=left;spacingLeft=6;fontStyle=5;overflow=hidden;horizontal=1;" vertex="1" parent="betWT-Afut7w752jWSQ--138">
          <mxGeometry x="66" width="114" height="20" as="geometry" />
        </mxCell>
        <mxCell id="betWT-Afut7w752jWSQ--141" value="" style="shape=partialRectangle;collapsible=0;dropTarget=0;pointerEvents=0;fillColor=none;top=0;left=0;bottom=0;right=0;points=[[0,0.5],[1,0.5]];portConstraint=eastwest;" vertex="1" parent="betWT-Afut7w752jWSQ--137">
          <mxGeometry y="87" width="180" height="30" as="geometry" />
        </mxCell>
        <mxCell id="betWT-Afut7w752jWSQ--142" value="" style="shape=partialRectangle;connectable=0;fillColor=none;top=0;left=0;bottom=0;right=0;editable=1;overflow=hidden;" vertex="1" parent="betWT-Afut7w752jWSQ--141">
          <mxGeometry width="66" height="30" as="geometry" />
        </mxCell>
        <mxCell id="betWT-Afut7w752jWSQ--143" value="" style="shape=partialRectangle;connectable=0;fillColor=none;top=0;left=0;bottom=0;right=0;align=left;spacingLeft=6;overflow=hidden;verticalAlign=middle;" vertex="1" parent="betWT-Afut7w752jWSQ--141">
          <mxGeometry x="66" width="114" height="30" as="geometry" />
        </mxCell>
        <mxCell id="betWT-Afut7w752jWSQ--147" value="" style="fontSize=12;html=1;endArrow=ERmandOne;startArrow=ERoneToMany;strokeColor=#CC0000;strokeWidth=2;rounded=0;entryX=0;entryY=0.5;entryDx=0;entryDy=0;exitX=1;exitY=0.5;exitDx=0;exitDy=0;startFill=0;endFill=0;" edge="1" parent="WIyWlLk6GJQsqaUBKTNV-1" source="betWT-Afut7w752jWSQ--144" target="betWT-Afut7w752jWSQ--121">
          <mxGeometry width="100" height="100" relative="1" as="geometry">
            <mxPoint x="345.0200000000002" y="1019.5160000000001" as="sourcePoint" />
            <mxPoint x="493" y="1019" as="targetPoint" />
          </mxGeometry>
        </mxCell>
        <mxCell id="betWT-Afut7w752jWSQ--120" value="PLAN" style="shape=table;startSize=30;container=1;collapsible=1;childLayout=tableLayout;fixedRows=1;rowLines=0;fontStyle=1;align=center;resizeLast=1;fillColor=none;fontSize=14;fontColor=#330000;" vertex="1" parent="WIyWlLk6GJQsqaUBKTNV-1">
          <mxGeometry x="485.0000000000001" y="951" width="180" height="106" as="geometry" />
        </mxCell>
        <mxCell id="betWT-Afut7w752jWSQ--121" value="" style="shape=partialRectangle;collapsible=0;dropTarget=0;pointerEvents=0;fillColor=none;top=0;left=0;bottom=1;right=0;points=[[0,0.5],[1,0.5]];portConstraint=eastwest;" vertex="1" parent="betWT-Afut7w752jWSQ--120">
          <mxGeometry y="30" width="180" height="36" as="geometry" />
        </mxCell>
        <mxCell id="betWT-Afut7w752jWSQ--122" value="PK" style="shape=partialRectangle;connectable=0;fillColor=none;top=0;left=0;bottom=0;right=0;fontStyle=1;overflow=hidden;" vertex="1" parent="betWT-Afut7w752jWSQ--121">
          <mxGeometry width="30" height="36" as="geometry" />
        </mxCell>
        <mxCell id="betWT-Afut7w752jWSQ--123" value="PLAN_CODE" style="shape=partialRectangle;connectable=0;fillColor=none;top=0;left=0;bottom=0;right=0;align=left;spacingLeft=6;fontStyle=5;overflow=hidden;horizontal=1;" vertex="1" parent="betWT-Afut7w752jWSQ--121">
          <mxGeometry x="30" width="150" height="36" as="geometry" />
        </mxCell>
        <mxCell id="betWT-Afut7w752jWSQ--148" value="" style="shape=partialRectangle;collapsible=0;dropTarget=0;pointerEvents=0;fillColor=none;top=0;left=0;bottom=0;right=0;points=[[0,0.5],[1,0.5]];portConstraint=eastwest;" vertex="1" parent="betWT-Afut7w752jWSQ--120">
          <mxGeometry y="66" width="180" height="30" as="geometry" />
        </mxCell>
        <mxCell id="betWT-Afut7w752jWSQ--149" value="" style="shape=partialRectangle;connectable=0;fillColor=none;top=0;left=0;bottom=0;right=0;editable=1;overflow=hidden;" vertex="1" parent="betWT-Afut7w752jWSQ--148">
          <mxGeometry width="30" height="30" as="geometry" />
        </mxCell>
        <mxCell id="betWT-Afut7w752jWSQ--150" value="PLAN_DESCRIPTION" style="shape=partialRectangle;connectable=0;fillColor=none;top=0;left=0;bottom=0;right=0;align=left;spacingLeft=6;overflow=hidden;verticalAlign=middle;" vertex="1" parent="betWT-Afut7w752jWSQ--148">
          <mxGeometry x="30" width="150" height="30" as="geometry" />
        </mxCell>
        <mxCell id="betWT-Afut7w752jWSQ--151" value="shows in" style="text;html=1;align=center;verticalAlign=middle;resizable=0;points=[];autosize=1;fontSize=12;fontColor=#CC0000;" vertex="1" parent="WIyWlLk6GJQsqaUBKTNV-1">
          <mxGeometry x="386" y="974" width="60" height="20" as="geometry" />
        </mxCell>
      </root>
    </mxGraphModel>
  </diagram>
  <diagram id="6ckUaCof5ZvkBrjtcbYb" name="Q1-2">
    <mxGraphModel dx="1113" dy="760" grid="1" gridSize="10" guides="1" tooltips="1" connect="1" arrows="1" fold="1" page="1" pageScale="1" pageWidth="1100" pageHeight="850" math="0" shadow="0">
      <root>
        <mxCell id="x38f3ibHS19MNBjw3xZS-0" />
        <mxCell id="x38f3ibHS19MNBjw3xZS-1" parent="x38f3ibHS19MNBjw3xZS-0" />
        <mxCell id="v2G3R6HeHqb8eg6yJIpC-0" value="h) Relational Diagram" style="text;html=1;strokeColor=none;fillColor=none;align=center;verticalAlign=middle;whiteSpace=wrap;rounded=0;fontColor=#330000;fontStyle=1;fontSize=20;" vertex="1" parent="x38f3ibHS19MNBjw3xZS-1">
          <mxGeometry x="404" y="395" width="280" height="20" as="geometry" />
        </mxCell>
        <mxCell id="v2G3R6HeHqb8eg6yJIpC-1" value="" style="shape=partialRectangle;connectable=0;fillColor=none;top=0;left=0;bottom=0;right=0;fontStyle=1;overflow=hidden;" vertex="1" parent="x38f3ibHS19MNBjw3xZS-1">
          <mxGeometry x="324" y="107" width="30" height="30" as="geometry" />
        </mxCell>
        <mxCell id="v2G3R6HeHqb8eg6yJIpC-50" value="" style="group" vertex="1" connectable="0" parent="x38f3ibHS19MNBjw3xZS-1">
          <mxGeometry x="610.0000000000001" y="479" width="180" height="100" as="geometry" />
        </mxCell>
        <mxCell id="v2G3R6HeHqb8eg6yJIpC-24" value="BENEFIT" style="shape=table;startSize=30;container=1;collapsible=1;childLayout=tableLayout;fixedRows=1;rowLines=0;fontStyle=1;align=center;resizeLast=1;" vertex="1" parent="v2G3R6HeHqb8eg6yJIpC-50">
          <mxGeometry width="180" height="100" as="geometry" />
        </mxCell>
        <mxCell id="v2G3R6HeHqb8eg6yJIpC-25" value="" style="shape=partialRectangle;collapsible=0;dropTarget=0;pointerEvents=0;fillColor=none;top=0;left=0;bottom=1;right=0;points=[[0,0.5],[1,0.5]];portConstraint=eastwest;strokeColor=none;" vertex="1" parent="v2G3R6HeHqb8eg6yJIpC-24">
          <mxGeometry y="30" width="180" height="30" as="geometry" />
        </mxCell>
        <mxCell id="v2G3R6HeHqb8eg6yJIpC-26" value="" style="shape=partialRectangle;connectable=0;fillColor=none;top=0;left=0;bottom=0;right=0;fontStyle=1;overflow=hidden;strokeColor=none;" vertex="1" parent="v2G3R6HeHqb8eg6yJIpC-25">
          <mxGeometry width="30" height="30" as="geometry" />
        </mxCell>
        <mxCell id="v2G3R6HeHqb8eg6yJIpC-27" value="EMP_CODE" style="shape=partialRectangle;connectable=0;fillColor=none;top=0;left=0;bottom=0;right=0;align=left;spacingLeft=6;fontStyle=5;overflow=hidden;horizontal=1;strokeColor=none;" vertex="1" parent="v2G3R6HeHqb8eg6yJIpC-25">
          <mxGeometry x="30" width="150" height="30" as="geometry" />
        </mxCell>
        <mxCell id="v2G3R6HeHqb8eg6yJIpC-28" value="" style="shape=partialRectangle;collapsible=0;dropTarget=0;pointerEvents=0;fillColor=none;top=0;left=0;bottom=0;right=0;points=[[0,0.5],[1,0.5]];portConstraint=eastwest;" vertex="1" parent="v2G3R6HeHqb8eg6yJIpC-24">
          <mxGeometry y="60" width="180" height="30" as="geometry" />
        </mxCell>
        <mxCell id="v2G3R6HeHqb8eg6yJIpC-29" value="" style="shape=partialRectangle;connectable=0;fillColor=none;top=0;left=0;bottom=0;right=0;editable=1;overflow=hidden;strokeColor=none;" vertex="1" parent="v2G3R6HeHqb8eg6yJIpC-28">
          <mxGeometry width="30" height="30" as="geometry" />
        </mxCell>
        <mxCell id="v2G3R6HeHqb8eg6yJIpC-30" value="PLAN_CODE" style="shape=partialRectangle;connectable=0;fillColor=none;top=0;left=0;bottom=0;right=0;align=left;spacingLeft=6;overflow=hidden;verticalAlign=middle;" vertex="1" parent="v2G3R6HeHqb8eg6yJIpC-28">
          <mxGeometry x="30" width="150" height="30" as="geometry" />
        </mxCell>
        <mxCell id="v2G3R6HeHqb8eg6yJIpC-47" value="" style="aspect=fixed;html=1;points=[];align=center;image;fontSize=12;image=img/lib/mscae/Key.svg;dashed=1;fillColor=none;" vertex="1" parent="v2G3R6HeHqb8eg6yJIpC-50">
          <mxGeometry x="7.999999999999886" y="37" width="12.4" height="20" as="geometry" />
        </mxCell>
        <mxCell id="v2G3R6HeHqb8eg6yJIpC-48" value="" style="aspect=fixed;html=1;points=[];align=center;image;fontSize=12;image=img/lib/mscae/Key.svg;dashed=1;fillColor=none;" vertex="1" parent="v2G3R6HeHqb8eg6yJIpC-50">
          <mxGeometry x="7.999999999999886" y="66" width="12.4" height="20" as="geometry" />
        </mxCell>
        <mxCell id="v2G3R6HeHqb8eg6yJIpC-54" value="" style="group" vertex="1" connectable="0" parent="x38f3ibHS19MNBjw3xZS-1">
          <mxGeometry x="890.0000000000001" y="480" width="180" height="100" as="geometry" />
        </mxCell>
        <mxCell id="v2G3R6HeHqb8eg6yJIpC-34" value="PLAN" style="shape=table;startSize=30;container=1;collapsible=1;childLayout=tableLayout;fixedRows=1;rowLines=0;fontStyle=1;align=center;resizeLast=1;" vertex="1" parent="v2G3R6HeHqb8eg6yJIpC-54">
          <mxGeometry x="-2" width="180" height="100" as="geometry" />
        </mxCell>
        <mxCell id="v2G3R6HeHqb8eg6yJIpC-35" value="" style="shape=partialRectangle;collapsible=0;dropTarget=0;pointerEvents=0;fillColor=none;top=0;left=0;bottom=1;right=0;points=[[0,0.5],[1,0.5]];portConstraint=eastwest;strokeColor=none;" vertex="1" parent="v2G3R6HeHqb8eg6yJIpC-34">
          <mxGeometry y="30" width="180" height="30" as="geometry" />
        </mxCell>
        <mxCell id="v2G3R6HeHqb8eg6yJIpC-36" value="" style="shape=partialRectangle;connectable=0;fillColor=none;top=0;left=0;bottom=0;right=0;fontStyle=1;overflow=hidden;strokeColor=none;" vertex="1" parent="v2G3R6HeHqb8eg6yJIpC-35">
          <mxGeometry width="30" height="30" as="geometry" />
        </mxCell>
        <mxCell id="v2G3R6HeHqb8eg6yJIpC-37" value="PLAN_CODE" style="shape=partialRectangle;connectable=0;fillColor=none;top=0;left=0;bottom=0;right=0;align=left;spacingLeft=6;fontStyle=5;overflow=hidden;horizontal=1;strokeColor=none;" vertex="1" parent="v2G3R6HeHqb8eg6yJIpC-35">
          <mxGeometry x="30" width="150" height="30" as="geometry" />
        </mxCell>
        <mxCell id="v2G3R6HeHqb8eg6yJIpC-38" value="" style="shape=partialRectangle;collapsible=0;dropTarget=0;pointerEvents=0;fillColor=none;top=0;left=0;bottom=0;right=0;points=[[0,0.5],[1,0.5]];portConstraint=eastwest;" vertex="1" parent="v2G3R6HeHqb8eg6yJIpC-34">
          <mxGeometry y="60" width="180" height="30" as="geometry" />
        </mxCell>
        <mxCell id="v2G3R6HeHqb8eg6yJIpC-39" value="" style="shape=partialRectangle;connectable=0;fillColor=none;top=0;left=0;bottom=0;right=0;editable=1;overflow=hidden;strokeColor=none;" vertex="1" parent="v2G3R6HeHqb8eg6yJIpC-38">
          <mxGeometry width="30" height="30" as="geometry" />
        </mxCell>
        <mxCell id="v2G3R6HeHqb8eg6yJIpC-40" value="PLAN_DESCRIPTION" style="shape=partialRectangle;connectable=0;fillColor=none;top=0;left=0;bottom=0;right=0;align=left;spacingLeft=6;overflow=hidden;verticalAlign=middle;" vertex="1" parent="v2G3R6HeHqb8eg6yJIpC-38">
          <mxGeometry x="30" width="150" height="30" as="geometry" />
        </mxCell>
        <mxCell id="v2G3R6HeHqb8eg6yJIpC-49" value="" style="aspect=fixed;html=1;points=[];align=center;image;fontSize=12;image=img/lib/mscae/Key.svg;dashed=1;fillColor=none;" vertex="1" parent="v2G3R6HeHqb8eg6yJIpC-54">
          <mxGeometry x="9.399999999999864" y="38" width="12.4" height="20" as="geometry" />
        </mxCell>
        <mxCell id="v2G3R6HeHqb8eg6yJIpC-57" value="" style="group" vertex="1" connectable="0" parent="x38f3ibHS19MNBjw3xZS-1">
          <mxGeometry x="208" y="146" width="180" height="130" as="geometry" />
        </mxCell>
        <mxCell id="v2G3R6HeHqb8eg6yJIpC-59" value="" style="group" vertex="1" connectable="0" parent="v2G3R6HeHqb8eg6yJIpC-57">
          <mxGeometry x="130" y="333" width="180" height="130" as="geometry" />
        </mxCell>
        <mxCell id="v2G3R6HeHqb8eg6yJIpC-2" value="EMPLOYEE" style="shape=table;startSize=30;container=1;collapsible=1;childLayout=tableLayout;fixedRows=1;rowLines=0;fontStyle=1;align=center;resizeLast=1;" vertex="1" parent="v2G3R6HeHqb8eg6yJIpC-59">
          <mxGeometry width="180" height="130" as="geometry" />
        </mxCell>
        <mxCell id="v2G3R6HeHqb8eg6yJIpC-3" value="" style="shape=partialRectangle;collapsible=0;dropTarget=0;pointerEvents=0;fillColor=none;top=0;left=0;bottom=1;right=0;points=[[0,0.5],[1,0.5]];portConstraint=eastwest;strokeColor=none;" vertex="1" parent="v2G3R6HeHqb8eg6yJIpC-2">
          <mxGeometry y="30" width="180" height="30" as="geometry" />
        </mxCell>
        <mxCell id="v2G3R6HeHqb8eg6yJIpC-4" value="" style="shape=partialRectangle;connectable=0;fillColor=none;top=0;left=0;bottom=0;right=0;fontStyle=1;overflow=hidden;strokeColor=none;" vertex="1" parent="v2G3R6HeHqb8eg6yJIpC-3">
          <mxGeometry width="30" height="30" as="geometry" />
        </mxCell>
        <mxCell id="v2G3R6HeHqb8eg6yJIpC-5" value="EMP_CODE" style="shape=partialRectangle;connectable=0;fillColor=none;top=0;left=0;bottom=0;right=0;align=left;spacingLeft=6;fontStyle=5;overflow=hidden;horizontal=1;strokeColor=none;" vertex="1" parent="v2G3R6HeHqb8eg6yJIpC-3">
          <mxGeometry x="30" width="150" height="30" as="geometry" />
        </mxCell>
        <mxCell id="v2G3R6HeHqb8eg6yJIpC-6" value="" style="shape=partialRectangle;collapsible=0;dropTarget=0;pointerEvents=0;fillColor=none;top=0;left=0;bottom=0;right=0;points=[[0,0.5],[1,0.5]];portConstraint=eastwest;" vertex="1" parent="v2G3R6HeHqb8eg6yJIpC-2">
          <mxGeometry y="60" width="180" height="30" as="geometry" />
        </mxCell>
        <mxCell id="v2G3R6HeHqb8eg6yJIpC-7" value="" style="shape=partialRectangle;connectable=0;fillColor=none;top=0;left=0;bottom=0;right=0;editable=1;overflow=hidden;strokeColor=none;" vertex="1" parent="v2G3R6HeHqb8eg6yJIpC-6">
          <mxGeometry width="30" height="30" as="geometry" />
        </mxCell>
        <mxCell id="v2G3R6HeHqb8eg6yJIpC-8" value="EMP_LNAME" style="shape=partialRectangle;connectable=0;fillColor=none;top=0;left=0;bottom=0;right=0;align=left;spacingLeft=6;overflow=hidden;verticalAlign=middle;" vertex="1" parent="v2G3R6HeHqb8eg6yJIpC-6">
          <mxGeometry x="30" width="150" height="30" as="geometry" />
        </mxCell>
        <mxCell id="v2G3R6HeHqb8eg6yJIpC-9" value="" style="shape=partialRectangle;collapsible=0;dropTarget=0;pointerEvents=0;fillColor=none;top=0;left=0;bottom=0;right=0;points=[[0,0.5],[1,0.5]];portConstraint=eastwest;" vertex="1" parent="v2G3R6HeHqb8eg6yJIpC-2">
          <mxGeometry y="90" width="180" height="30" as="geometry" />
        </mxCell>
        <mxCell id="v2G3R6HeHqb8eg6yJIpC-10" value="" style="shape=partialRectangle;connectable=0;fillColor=none;top=0;left=0;bottom=0;right=0;editable=1;overflow=hidden;strokeColor=none;" vertex="1" parent="v2G3R6HeHqb8eg6yJIpC-9">
          <mxGeometry width="30" height="30" as="geometry" />
        </mxCell>
        <mxCell id="v2G3R6HeHqb8eg6yJIpC-11" value="JOB_CODE" style="shape=partialRectangle;connectable=0;fillColor=none;top=0;left=0;bottom=0;right=0;align=left;spacingLeft=6;overflow=hidden;verticalAlign=middle;strokeColor=none;" vertex="1" parent="v2G3R6HeHqb8eg6yJIpC-9">
          <mxGeometry x="30" width="150" height="30" as="geometry" />
        </mxCell>
        <mxCell id="v2G3R6HeHqb8eg6yJIpC-12" value="" style="aspect=fixed;html=1;points=[];align=center;image;fontSize=12;image=img/lib/mscae/Key.svg;fillColor=none;" vertex="1" parent="v2G3R6HeHqb8eg6yJIpC-59">
          <mxGeometry x="8" y="35" width="12.4" height="20" as="geometry" />
        </mxCell>
        <mxCell id="v2G3R6HeHqb8eg6yJIpC-58" value="" style="group" vertex="1" connectable="0" parent="x38f3ibHS19MNBjw3xZS-1">
          <mxGeometry x="70" y="480" width="180" height="100" as="geometry" />
        </mxCell>
        <mxCell id="v2G3R6HeHqb8eg6yJIpC-13" value="JOB" style="shape=table;startSize=30;container=1;collapsible=1;childLayout=tableLayout;fixedRows=1;rowLines=0;fontStyle=1;align=center;resizeLast=1;" vertex="1" parent="v2G3R6HeHqb8eg6yJIpC-58">
          <mxGeometry width="180" height="100" as="geometry" />
        </mxCell>
        <mxCell id="v2G3R6HeHqb8eg6yJIpC-14" value="" style="shape=partialRectangle;collapsible=0;dropTarget=0;pointerEvents=0;fillColor=none;top=0;left=0;bottom=1;right=0;points=[[0,0.5],[1,0.5]];portConstraint=eastwest;strokeColor=none;" vertex="1" parent="v2G3R6HeHqb8eg6yJIpC-13">
          <mxGeometry y="30" width="180" height="30" as="geometry" />
        </mxCell>
        <mxCell id="v2G3R6HeHqb8eg6yJIpC-15" value="" style="shape=partialRectangle;connectable=0;fillColor=none;top=0;left=0;bottom=0;right=0;fontStyle=1;overflow=hidden;strokeColor=none;" vertex="1" parent="v2G3R6HeHqb8eg6yJIpC-14">
          <mxGeometry width="30" height="30" as="geometry" />
        </mxCell>
        <mxCell id="v2G3R6HeHqb8eg6yJIpC-16" value="JOB_CODE" style="shape=partialRectangle;connectable=0;fillColor=none;top=0;left=0;bottom=0;right=0;align=left;spacingLeft=6;fontStyle=5;overflow=hidden;horizontal=1;strokeColor=none;" vertex="1" parent="v2G3R6HeHqb8eg6yJIpC-14">
          <mxGeometry x="30" width="150" height="30" as="geometry" />
        </mxCell>
        <mxCell id="v2G3R6HeHqb8eg6yJIpC-17" value="" style="shape=partialRectangle;collapsible=0;dropTarget=0;pointerEvents=0;fillColor=none;top=0;left=0;bottom=0;right=0;points=[[0,0.5],[1,0.5]];portConstraint=eastwest;" vertex="1" parent="v2G3R6HeHqb8eg6yJIpC-13">
          <mxGeometry y="60" width="180" height="30" as="geometry" />
        </mxCell>
        <mxCell id="v2G3R6HeHqb8eg6yJIpC-18" value="" style="shape=partialRectangle;connectable=0;fillColor=none;top=0;left=0;bottom=0;right=0;editable=1;overflow=hidden;strokeColor=none;" vertex="1" parent="v2G3R6HeHqb8eg6yJIpC-17">
          <mxGeometry width="30" height="30" as="geometry" />
        </mxCell>
        <mxCell id="v2G3R6HeHqb8eg6yJIpC-19" value="JOB_DESCRIPTION" style="shape=partialRectangle;connectable=0;fillColor=none;top=0;left=0;bottom=0;right=0;align=left;spacingLeft=6;overflow=hidden;verticalAlign=middle;strokeColor=none;" vertex="1" parent="v2G3R6HeHqb8eg6yJIpC-17">
          <mxGeometry x="30" width="150" height="30" as="geometry" />
        </mxCell>
        <mxCell id="v2G3R6HeHqb8eg6yJIpC-20" value="" style="aspect=fixed;html=1;points=[];align=center;image;fontSize=12;image=img/lib/mscae/Key.svg;fillColor=none;" vertex="1" parent="v2G3R6HeHqb8eg6yJIpC-58">
          <mxGeometry x="10" y="35" width="12.4" height="20" as="geometry" />
        </mxCell>
        <mxCell id="v2G3R6HeHqb8eg6yJIpC-61" value="" style="edgeStyle=entityRelationEdgeStyle;fontSize=12;html=1;endArrow=none;strokeColor=#000000;strokeWidth=2;rounded=0;exitX=1;exitY=0.5;exitDx=0;exitDy=0;entryX=0;entryY=0.5;entryDx=0;entryDy=0;endFill=0;" edge="1" parent="x38f3ibHS19MNBjw3xZS-1" source="v2G3R6HeHqb8eg6yJIpC-14" target="v2G3R6HeHqb8eg6yJIpC-9">
          <mxGeometry width="100" height="100" relative="1" as="geometry">
            <mxPoint x="230" y="470" as="sourcePoint" />
            <mxPoint x="330" y="370" as="targetPoint" />
          </mxGeometry>
        </mxCell>
        <mxCell id="v2G3R6HeHqb8eg6yJIpC-62" value="1" style="text;html=1;align=center;verticalAlign=middle;resizable=0;points=[];autosize=1;fontSize=14;fontColor=#330000;" vertex="1" parent="x38f3ibHS19MNBjw3xZS-1">
          <mxGeometry x="870" y="500" width="20" height="20" as="geometry" />
        </mxCell>
        <mxCell id="v2G3R6HeHqb8eg6yJIpC-63" value="1" style="text;html=1;align=center;verticalAlign=middle;resizable=0;points=[];autosize=1;fontSize=14;fontColor=#330000;" vertex="1" parent="x38f3ibHS19MNBjw3xZS-1">
          <mxGeometry x="520" y="500" width="20" height="20" as="geometry" />
        </mxCell>
        <mxCell id="v2G3R6HeHqb8eg6yJIpC-64" value="1" style="text;html=1;align=center;verticalAlign=middle;resizable=0;points=[];autosize=1;fontSize=14;fontColor=#330000;" vertex="1" parent="x38f3ibHS19MNBjw3xZS-1">
          <mxGeometry x="250" y="500" width="20" height="20" as="geometry" />
        </mxCell>
        <mxCell id="v2G3R6HeHqb8eg6yJIpC-65" value="∞" style="text;html=1;align=center;verticalAlign=middle;resizable=0;points=[];autosize=1;fontSize=16;fontColor=#330000;" vertex="1" parent="x38f3ibHS19MNBjw3xZS-1">
          <mxGeometry x="580" y="502" width="30" height="20" as="geometry" />
        </mxCell>
        <mxCell id="v2G3R6HeHqb8eg6yJIpC-66" value="∞" style="text;html=1;align=center;verticalAlign=middle;resizable=0;points=[];autosize=1;fontSize=16;fontColor=#330000;" vertex="1" parent="x38f3ibHS19MNBjw3xZS-1">
          <mxGeometry x="307" y="563" width="30" height="20" as="geometry" />
        </mxCell>
        <mxCell id="v2G3R6HeHqb8eg6yJIpC-67" value="" style="fontSize=12;html=1;endArrow=none;strokeColor=#000000;strokeWidth=2;rounded=0;exitX=1;exitY=0.5;exitDx=0;exitDy=0;entryX=0;entryY=0.5;entryDx=0;entryDy=0;endFill=0;" edge="1" parent="x38f3ibHS19MNBjw3xZS-1" source="v2G3R6HeHqb8eg6yJIpC-3" target="v2G3R6HeHqb8eg6yJIpC-25">
          <mxGeometry width="100" height="100" relative="1" as="geometry">
            <mxPoint x="570" y="600" as="sourcePoint" />
            <mxPoint x="658" y="659" as="targetPoint" />
          </mxGeometry>
        </mxCell>
        <mxCell id="v2G3R6HeHqb8eg6yJIpC-69" value="" style="edgeStyle=entityRelationEdgeStyle;fontSize=12;html=1;endArrow=none;strokeColor=#000000;strokeWidth=2;rounded=0;exitX=1;exitY=0.5;exitDx=0;exitDy=0;entryX=0;entryY=0.5;entryDx=0;entryDy=0;endFill=0;" edge="1" parent="x38f3ibHS19MNBjw3xZS-1" source="v2G3R6HeHqb8eg6yJIpC-28" target="v2G3R6HeHqb8eg6yJIpC-35">
          <mxGeometry width="100" height="100" relative="1" as="geometry">
            <mxPoint x="790" y="425" as="sourcePoint" />
            <mxPoint x="878" y="484" as="targetPoint" />
          </mxGeometry>
        </mxCell>
        <mxCell id="v2G3R6HeHqb8eg6yJIpC-23" value="∞" style="text;html=1;align=center;verticalAlign=middle;resizable=0;points=[];autosize=1;fontSize=16;fontColor=#330000;" vertex="1" parent="x38f3ibHS19MNBjw3xZS-1">
          <mxGeometry x="789" y="534" width="30" height="20" as="geometry" />
        </mxCell>
      </root>
    </mxGraphModel>
  </diagram>
  <diagram id="L4qm_YGBh8bLhtagzc-P" name="Q2">
    <mxGraphModel dx="788" dy="538" grid="1" gridSize="10" guides="1" tooltips="1" connect="1" arrows="1" fold="1" page="1" pageScale="1" pageWidth="1100" pageHeight="850" math="0" shadow="0">
      <root>
        <mxCell id="1IaV5iiIF5B192NXagEw-0" />
        <mxCell id="1IaV5iiIF5B192NXagEw-1" parent="1IaV5iiIF5B192NXagEw-0" />
        <mxCell id="DvHUeZQDyl5GTByyvPYj-0" value="Ch4 Problem 1 (Conceptual)" style="text;html=1;strokeColor=none;fillColor=none;align=center;verticalAlign=middle;whiteSpace=wrap;rounded=0;fontColor=#330000;fontStyle=1;fontSize=20;" vertex="1" parent="1IaV5iiIF5B192NXagEw-1">
          <mxGeometry x="290" y="100" width="280" height="20" as="geometry" />
        </mxCell>
        <mxCell id="DvHUeZQDyl5GTByyvPYj-5" value="DIVISION" style="swimlane;fontStyle=0;childLayout=stackLayout;horizontal=1;startSize=26;horizontalStack=0;resizeParent=1;resizeParentMax=0;resizeLast=0;collapsible=1;marginBottom=0;align=center;fontSize=14;strokeColor=#000000;fillColor=none;" vertex="1" parent="1IaV5iiIF5B192NXagEw-1">
          <mxGeometry x="170" y="170" width="130" height="100" as="geometry" />
        </mxCell>
        <mxCell id="DvHUeZQDyl5GTByyvPYj-12" value="DEPARTMENT" style="swimlane;fontStyle=0;childLayout=stackLayout;horizontal=1;startSize=26;horizontalStack=0;resizeParent=1;resizeParentMax=0;resizeLast=0;collapsible=1;marginBottom=0;align=center;fontSize=14;strokeColor=#000000;fillColor=none;" vertex="1" parent="1IaV5iiIF5B192NXagEw-1">
          <mxGeometry x="452" y="169" width="130" height="100" as="geometry" />
        </mxCell>
        <mxCell id="DvHUeZQDyl5GTByyvPYj-13" value="PROJECT" style="swimlane;fontStyle=0;childLayout=stackLayout;horizontal=1;startSize=26;horizontalStack=0;resizeParent=1;resizeParentMax=0;resizeLast=0;collapsible=1;marginBottom=0;align=center;fontSize=14;strokeColor=#000000;fillColor=none;" vertex="1" parent="1IaV5iiIF5B192NXagEw-1">
          <mxGeometry x="461" y="374" width="130" height="100" as="geometry" />
        </mxCell>
        <mxCell id="DvHUeZQDyl5GTByyvPYj-14" value="EMPLOYEE" style="swimlane;fontStyle=0;childLayout=stackLayout;horizontal=1;startSize=30;horizontalStack=0;resizeParent=1;resizeParentMax=0;resizeLast=0;collapsible=1;marginBottom=0;align=center;fontSize=14;strokeColor=#000000;fillColor=none;" vertex="1" parent="1IaV5iiIF5B192NXagEw-1">
          <mxGeometry x="170" y="375" width="130" height="100" as="geometry" />
        </mxCell>
        <mxCell id="DvHUeZQDyl5GTByyvPYj-15" value="" style="fontSize=12;html=1;endArrow=ERmandOne;startArrow=ERzeroToOne;strokeWidth=2;rounded=0;exitX=0.5;exitY=1;exitDx=0;exitDy=0;entryX=0.5;entryY=0;entryDx=0;entryDy=0;strokeColor=#CC0000;endFill=0;" edge="1" parent="1IaV5iiIF5B192NXagEw-1" source="DvHUeZQDyl5GTByyvPYj-5" target="DvHUeZQDyl5GTByyvPYj-14">
          <mxGeometry width="100" height="100" relative="1" as="geometry">
            <mxPoint x="370" y="350" as="sourcePoint" />
            <mxPoint x="470" y="250" as="targetPoint" />
          </mxGeometry>
        </mxCell>
        <mxCell id="DvHUeZQDyl5GTByyvPYj-16" value="runs" style="text;html=1;align=center;verticalAlign=middle;resizable=0;points=[];autosize=1;fontSize=12;fontColor=#CC0000;" vertex="1" parent="1IaV5iiIF5B192NXagEw-1">
          <mxGeometry x="190" y="310" width="40" height="20" as="geometry" />
        </mxCell>
        <mxCell id="DvHUeZQDyl5GTByyvPYj-17" value="" style="edgeStyle=entityRelationEdgeStyle;fontSize=12;html=1;endArrow=ERzeroToOne;startArrow=ERoneToMany;strokeColor=#CC0000;strokeWidth=2;rounded=0;exitX=1;exitY=0.5;exitDx=0;exitDy=0;entryX=0;entryY=1;entryDx=0;entryDy=0;startFill=0;endFill=1;" edge="1" parent="1IaV5iiIF5B192NXagEw-1" source="DvHUeZQDyl5GTByyvPYj-14" target="DvHUeZQDyl5GTByyvPYj-12">
          <mxGeometry width="100" height="100" relative="1" as="geometry">
            <mxPoint x="380" y="390" as="sourcePoint" />
            <mxPoint x="470" y="250" as="targetPoint" />
          </mxGeometry>
        </mxCell>
        <mxCell id="DvHUeZQDyl5GTByyvPYj-18" value="" style="edgeStyle=entityRelationEdgeStyle;fontSize=12;html=1;endArrow=none;endFill=0;strokeColor=#CC0000;strokeWidth=2;rounded=0;exitX=1;exitY=0.75;exitDx=0;exitDy=0;entryX=0;entryY=0.75;entryDx=0;entryDy=0;" edge="1" parent="1IaV5iiIF5B192NXagEw-1" source="DvHUeZQDyl5GTByyvPYj-14" target="DvHUeZQDyl5GTByyvPYj-13">
          <mxGeometry width="100" height="100" relative="1" as="geometry">
            <mxPoint x="370" y="350" as="sourcePoint" />
            <mxPoint x="470" y="250" as="targetPoint" />
          </mxGeometry>
        </mxCell>
        <mxCell id="DvHUeZQDyl5GTByyvPYj-19" value="manages" style="text;html=1;align=center;verticalAlign=middle;resizable=0;points=[];autosize=1;fontSize=12;fontColor=#CC0000;" vertex="1" parent="1IaV5iiIF5B192NXagEw-1">
          <mxGeometry x="378" y="340" width="60" height="20" as="geometry" />
        </mxCell>
        <mxCell id="DvHUeZQDyl5GTByyvPYj-20" value="employees" style="text;html=1;align=center;verticalAlign=middle;resizable=0;points=[];autosize=1;fontSize=12;fontColor=#CC0000;" vertex="1" parent="1IaV5iiIF5B192NXagEw-1">
          <mxGeometry x="313" y="312" width="70" height="20" as="geometry" />
        </mxCell>
        <mxCell id="DvHUeZQDyl5GTByyvPYj-21" value="" style="edgeStyle=entityRelationEdgeStyle;fontSize=12;html=1;endArrow=none;startArrow=none;strokeColor=#CC0000;strokeWidth=2;rounded=0;exitX=1;exitY=0.5;exitDx=0;exitDy=0;entryX=0;entryY=0.5;entryDx=0;entryDy=0;startFill=0;endFill=0;" edge="1" parent="1IaV5iiIF5B192NXagEw-1" source="DvHUeZQDyl5GTByyvPYj-5" target="DvHUeZQDyl5GTByyvPYj-12">
          <mxGeometry width="100" height="100" relative="1" as="geometry">
            <mxPoint x="330" y="335" as="sourcePoint" />
            <mxPoint x="480" y="180" as="targetPoint" />
          </mxGeometry>
        </mxCell>
      </root>
    </mxGraphModel>
  </diagram>
</mxfile>
